{
  "asset": {
    "version": "2.0",
    "generator": "THREE.GLTFExporter"
  },
  "scenes": [
    {
      "name": "AuxScene",
      "nodes": [
        3
      ]
    }
  ],
  "scene": 0,
  "nodes": [
    {
      "name": "Wings_arm_Left_lower_cover",
      "extras": {
        "name": "Wings arm Left lower cover",
        "originalName": "Wings_arm_Left_lower_cover"
      },
      "mesh": 0
    },
    {
      "matrix": [
        1000,
        0,
        0,
        0,
        0,
        1000,
        0,
        0,
        0,
        0,
        1000,
        0,
        0,
        0,
        0,
        1
      ],
      "name": "Wings_arm_Left_lower_coverglb",
      "extras": {
        "name": "Wings arm Left lower cover.glb",
        "originalName": "Wings_arm_Left_lower_coverglb"
      },
      "children": [
        0
      ]
    },
    {
      "name": "Cover",
      "extras": {
        "name": "Cover",
        "originalName": "Cover"
      },
      "children": [
        1
      ]
    },
    {
      "children": [
        2
      ]
    }
  ],
  "bufferViews": [
    {
      "buffer": 0,
      "byteOffset": 0,
      "byteLength": 15612,
      "target": 34962,
      "byteStride": 12
    },
    {
      "buffer": 0,
      "byteOffset": 15612,
      "byteLength": 15612,
      "target": 34962,
      "byteStride": 12
    },
    {
      "buffer": 0,
      "byteOffset": 31224,
      "byteLength": 20448,
      "target": 34963
    }
  ],
  "buffers": [
    {
      "byteLength": 51672,
      "uri": "data:application/octet-stream;base64,"
    }
  ],
  "accessors": [
    {
      "bufferView": 0,
      "componentType": 5126,
      "count": 1301,
      "max": [
        0.9999873042106628,
        0.9993742108345032,
        0.9995346665382385
      ],
      "min": [
        -0.9999992847442627,
        -1,
        -0.9999992847442627
      ],
      "type": "VEC3"
    },
    {
      "bufferView": 1,
      "componentType": 5126,
      "count": 1301,
      "max": [
        0.00842066016048193,
        0.11090334504842758,
        0.016451861709356308
      ],
      "min": [
        -0.008999999612569809,
        0,
        0.0006283883121795952
      ],
      "type": "VEC3"
    },
    {
      "bufferView": 2,
      "componentType": 5125,
      "count": 5112,
      "max": [
        1300
      ],
      "min": [
        0
      ],
      "type": "SCALAR"
    }
  ],
  "materials": [
    {
      "pbrMetallicRoughness": {
        "baseColorFactor": [
          0.7921568751335144,
          0.8196078538894653,
          0.9333333373069763,
          1
        ],
        "metallicFactor": 0,
        "roughnessFactor": 1
      },
      "doubleSided": true
    }
  ],
  "meshes": [
    {
      "primitives": [
        {
          "mode": 4,
          "attributes": {
            "NORMAL": 0,
            "POSITION": 1
          },
          "indices": 2,
          "material": 0
        }
      ]
    }
  ]
}